{"title":"The.Night.Crew.2015.DVDRip.XviD.AC3-RARBG","uid":11796069,"size":1320904639,"categoryP":"video","categoryS":"hd___movies","magnet":"?xt=urn:btih:b93d37a0f19c2bb5a7fb8885067765ed7c4bdffc&amp;dn=The.Night.Crew.2015.DVDRip.XviD.AC3-RARBG&amp;tr=udp%3A%2F%2Ftracker.openbittorrent.com%3A80&amp;tr=udp%3A%2F%2Fopen.demonii.com%3A1337&amp;tr=udp%3A%2F%2Ftracker.coppersurfer.tk%3A6969&amp;tr=udp%3A%2F%2Fexodus.desync.com%3A6969","seeders":3,"leechers":1,"uploader":"makintos13","files":4,"time":1428174037,"description":"screen:\n &lt;a href=&quot;\nhttp://imgmak.com/RV&quot; rel=&quot;nofollow&quot; target=&quot;_NEW&quot;&gt;\nhttp://imgmak.com/RV&lt;/a&gt;\n &lt;a href=&quot;\nhttp://imgmak.com/Re&quot; rel=&quot;nofollow&quot; target=&quot;_NEW&quot;&gt;\nhttp://imgmak.com/Re&lt;/a&gt;\n &lt;a href=&quot;\nhttp://imgmak.com/Rg&quot; rel=&quot;nofollow&quot; target=&quot;_NEW&quot;&gt;\nhttp://imgmak.com/Rg&lt;/a&gt;\n\n...........\n\n\nFormat                                   : AVI\nFormat/Info                              : Audio Video Interleave\nFile size                                : 1.23 GiB\nDuration                                 : 1h 28mn\nOverall bit rate                         : 1 984 Kbps\nMovie name                               : RARBG.COM - The.Night.Crew.2015.DVDRip.XviD.AC3-RARBG\nWriting library                          : VirtualDub build 35491/release\nComment                                  : RARBG.COM - The.Night.Crew.2015.DVDRip.XviD.AC3-RARBG\n\nVideo\nID                                       : 0\nFormat                                   : MPEG-4 Visual\nFormat profile                           : Simple@L5\nFormat settings, BVOP                    : No\nFormat settings, QPel                    : No\nFormat settings, GMC                     : No warppoints\nFormat settings, Matrix                  : Default (H.263)\nCodec ID                                 : XVID\nCodec ID/Hint                            : XviD\nDuration                                 : 1h 28mn\nBit rate                                 : 1 527 Kbps\nWidth                                    : 720 pixels\nHeight                                   : 400 pixels\nDisplay aspect ratio                     : 16:9\nFrame rate                               : 25.000 fps\nColor space                              : YUV\nChroma subsampling                       : 4:2:0\nBit depth                                : 8 bits\nScan type                                : Progressive\nCompression mode                         : Lossy\nBits/(Pixel*Frame)                       : 0.212\nStream size                              : 968 MiB (77%)\nWriting library                          : Lavc56.20.100\n\nAudio\nID                                       : 1\nFormat                                   : AC-3\nFormat/Info                              : Audio Coding 3\nMode extension                           : CM (complete main)\nFormat settings, Endianness              : Big\nCodec ID                                 : 2000\nDuration                                 : 1h 28mn\nBit rate mode                            : Constant\nBit rate                                 : 448 Kbps\nChannel(s)                               : 6 channels\nChannel positions                        : Front: L C R, Side: L R, LFE\nSampling rate                            : 48.0 KHz\nBit depth                                : 16 bits\nCompression mode                         : Lossy\nStream size                              : 284 MiB (23%)\nAlignment                                : Aligned on interleaves\nInterleave, duration                     : 40 ms (1.00 video frame)\nInterleave, preload duration             : 512 ms","torrent":{"xt":"urn:btih:b93d37a0f19c2bb5a7fb8885067765ed7c4bdffc","amp;dn":"The.Night.Crew.2015.DVDRip.XviD.AC3-RARBG","amp;tr":["udp%3A%2F%2Ftracker.openbittorrent.com%3A80","udp%3A%2F%2Fopen.demonii.com%3A1337","udp%3A%2F%2Ftracker.coppersurfer.tk%3A6969","udp%3A%2F%2Fexodus.desync.com%3A6969"],"infoHash":"b93d37a0f19c2bb5a7fb8885067765ed7c4bdffc","infoHashBuffer":{"type":"Buffer","data":[185,61,55,160,241,156,43,181,167,251,136,133,6,119,101,237,124,75,223,252]},"announce":[],"urlList":[]}}